<!--?xml version="1.0" standalone="no"?-->

<svg version="1.0" xmlns="http://www.w3.org/2000/svg" width="300.000000pt" height="300.000000pt" viewBox="0 0 300.000000 300.000000" preserveAspectRatio="xMidYMid meet">
<g transform="translate(0.000000,300.000000) scale(0.100000,-0.100000)" fill="#FFFFFF" stroke="none">
<path class="node" id="node1" d="M1120 2993 c-73 -14 -194 -58 -260 -95 -74 -40 -220 -173 -220 -200
-1 -21 -34 -55 -61 -63 -13 -4 -57 -23 -97 -42 -80 -38 -196 -139 -240 -208
-40 -62 -82 -147 -82 -165 0 -9 -4 -20 -9 -26 -17 -17 -31 -127 -31 -244 0
-153 19 -253 71 -381 l18 -46 -34 -68 c-43 -86 -55 -142 -55 -256 0 -97 21
-178 66 -255 24 -40 117 -139 148 -156 13 -7 15 -20 10 -61 -15 -129 56 -291
158 -363 61 -43 150 -80 213 -89 62 -8 68 -11 88 -51 23 -44 98 -117 151 -147
165 -92 392 -102 509 -23 l37 25 37 -25 c117 -79 344 -69 509 23 53 30 128
103 151 147 20 40 26 43 88 51 63 9 152 46 213 89 102 72 173 234 158 363 -5
41 -3 54 10 61 31 17 124 116 148 156 45 77 66 158 66 255 0 114 -12 170 -55
256 l-34 68 18 46 c52 128 71 228 71 381 0 117 -14 227 -31 245 -5 5 -9 16 -9
25 0 18 -42 103 -82 165 -44 69 -160 170 -240 208 -40 19 -84 38 -97 42 -27 8
-60 42 -61 63 0 7 -33 45 -72 86 -85 85 -182 143 -308 183 -75 24 -101 27
-220 28 -139 0 -193 -12 -242 -53 -16 -13 -20 -13 -35 -1 -50 41 -97 53 -218
55 -66 1 -131 0 -145 -3z m240 -268 c13 -26 15 -181 18 -1216 2 -760 -1 -1196
-7 -1212 -17 -43 -52 -59 -131 -58 -127 2 -203 47 -253 149 -42 88 -65 102
-171 113 -96 10 -136 23 -183 63 -48 40 -58 89 -42 201 14 106 5 137 -49 170
-71 43 -136 102 -161 145 -21 38 -25 58 -26 125 0 69 4 88 30 138 63 126 160
181 315 182 47 0 117 -6 156 -14 81 -16 116 -10 149 23 57 57 38 153 -38 186
-114 50 -356 53 -482 6 -38 -15 -74 -28 -79 -29 -5 -1 -18 25 -29 58 -29 91
-28 297 2 380 56 155 155 244 317 285 57 14 88 41 121 106 67 134 207 219 378
233 110 9 147 2 165 -34z m568 11 c118 -40 205 -111 254 -208 37 -73 62 -94
138 -113 111 -29 187 -81 245 -169 61 -92 78 -155 78 -296 1 -106 -3 -138 -25
-211 -14 -47 -35 -103 -46 -125 -23 -45 -127 -148 -190 -188 -52 -33 -153 -56
-214 -49 -55 6 -101 -15 -128 -60 -25 -40 -25 -63 -1 -107 61 -115 342 -83
529 60 29 22 56 40 61 40 13 0 23 -102 16 -152 -13 -82 -72 -154 -186 -223
-58 -35 -64 -58 -50 -171 11 -82 11 -106 -1 -139 -36 -106 -232 -162 -311 -89
-40 37 -54 71 -60 147 -5 72 -19 97 -69 123 -35 18 -68 18 -107 -2 -51 -25
-65 -64 -58 -164 7 -109 47 -201 120 -274 l50 -50 -27 -21 c-42 -33 -115 -55
-189 -56 -75 -1 -111 15 -128 58 -6 16 -9 452 -7 1212 3 1329 -2 1242 73 1251
60 8 173 -4 233 -24z"></path>
<path class="node" id="node2" d="M1081 2414 c-17 -14 -35 -42 -41 -62 -12 -45 -61 -107 -101 -128 -17
-8 -64 -19 -105 -24 -63 -7 -81 -13 -105 -36 -53 -51 -48 -132 11 -174 40 -28
158 -28 242 1 120 41 204 118 259 236 32 69 36 110 14 153 -34 65 -118 82
-174 34z"></path>
<path class="node" id="node3" d="M614 1234 c-28 -29 -34 -43 -34 -78 0 -59 26 -89 113 -129 127 -59
206 -170 227 -318 10 -68 21 -91 55 -113 53 -35 128 -17 160 36 47 80 -11 298
-113 428 -85 108 -249 210 -337 210 -30 0 -44 -7 -71 -36z"></path>
<path class="node" id="node4" d="M1923 2319 c-43 -13 -75 -60 -75 -110 1 -92 75 -249 156 -332 91 -94
188 -136 327 -144 113 -6 156 8 190 64 28 45 21 96 -21 137 -29 29 -34 31
-118 32 -100 1 -158 21 -209 72 -36 36 -76 116 -94 185 -11 47 -55 97 -84 97
-7 0 -19 2 -27 4 -7 2 -27 0 -45 -5z"></path>
</g>
<g transform="translate(0.000000,300.000000) scale(0.100000,-0.100000)" fill="none" stroke="none">

<path class="node" id="node6" d="M1370 2994 c43 -14 97 -39 113 -52 15 -13 19 -13 35 0 15 13 69 38
112 52 8 2 -50 4 -130 4 -80 0 -138 -2 -130 -4z"></path>

<path class="node" id="node8" d="M1195 2759 c-171 -14 -311 -99 -378 -233 -33 -65 -64 -92 -121 -106
-162 -41 -261 -130 -317 -285 -30 -83 -31 -289 -2 -380 11 -33 24 -59 29 -58
5 1 41 14 79 29 126 47 368 44 482 -6 76 -33 95 -129 38 -186 -33 -33 -68 -39
-149 -23 -39 8 -109 14 -156 14 -155 -1 -252 -56 -315 -182 -26 -50 -30 -69
-30 -138 1 -67 5 -87 26 -125 25 -43 90 -102 161 -145 54 -33 63 -64 49 -170
-16 -112 -6 -161 42 -201 47 -40 87 -53 183 -63 106 -11 129 -25 171 -113 50
-102 126 -147 253 -149 79 -1 114 15 131 58 6 16 9 452 7 1212 -3 1329 2 1242
-73 1251 -22 3 -71 2 -110 -1z m23 -335 c29 -20 52 -66 52 -104 0 -40 -47
-142 -89 -195 -77 -95 -207 -155 -337 -155 -60 0 -82 4 -104 20 -59 42 -64
123 -11 174 24 23 42 29 105 36 41 5 88 16 105 24 40 21 89 83 101 128 21 75
118 114 178 72z m-460 -1170 c200 -88 309 -209 371 -410 28 -92 30 -170 6
-212 -32 -53 -107 -71 -160 -36 -34 22 -45 45 -55 113 -21 148 -100 259 -227
318 -87 40 -113 70 -113 129 0 35 6 49 34 78 38 41 82 47 144 20z"></path>
<path class="node" id="node9" d="M1695 2760 c-75 -9 -70 78 -73 -1251 -2 -760 1 -1196 7 -1212 17 -43
53 -59 128 -58 74 1 147 23 189 56 l27 21 -50 50 c-73 73 -113 165 -120 274
-7 100 7 139 58 164 39 20 72 20 107 2 50 -26 64 -51 69 -123 6 -76 20 -110
60 -147 79 -73 275 -17 311 89 12 33 12 57 1 139 -14 113 -8 136 50 171 114
69 173 141 186 223 7 50 -3 152 -16 152 -5 0 -32 -18 -61 -40 -187 -143 -468
-175 -529 -60 -24 44 -24 67 1 107 27 45 73 66 128 60 61 -7 162 16 214 49 63
40 167 143 190 188 11 22 32 78 46 125 22 73 26 105 25 211 0 141 -17 204 -78
296 -58 88 -134 140 -245 169 -76 19 -101 40 -138 113 -66 132 -206 217 -377
231 -38 3 -88 4 -110 1z m300 -440 c29 0 73 -50 84 -97 18 -69 58 -149 94
-185 51 -51 109 -71 209 -72 84 -1 89 -3 118 -32 61 -61 44 -151 -37 -189 -50
-24 -205 -16 -281 14 -150 60 -256 176 -311 343 -29 87 -29 138 -2 177 22 30
73 53 99 45 8 -2 20 -4 27 -4z"></path>
<path class="node" id="node10" d="M1469 58 c-15 -11 -51 -29 -80 -39 l-54 -18 165 0 165 0 -53 18 c-30
10 -67 28 -82 40 -34 25 -29 25 -61 -1z"></path>
</g>
</svg>