<?xml version="1.0" standalone="yes"?>

<svg version="1.1" viewBox="0.0 0.0 960.0 540.0" fill="none" stroke="none" stroke-linecap="square" stroke-miterlimit="10" xmlns="http://www.w3.org/2000/svg" xmlns:xlink="http://www.w3.org/1999/xlink"><clipPath id="p.0"><path d="m0 0l960.0 0l0 540.0l-960.0 0l0 -540.0z" clip-rule="nonzero"></path></clipPath><g clip-path="url(#p.0)"><path fill="#00517c" d="m0 0l960.0 0l0 540.0l-960.0 0z" fill-rule="nonzero"></path><path fill="#000000" fill-opacity="0.0" d="m160.08398 188.71976l0 -118.10499l113.55643 0" fill-rule="nonzero"></path><path stroke="#8bc34a" stroke-width="3.0" stroke-miterlimit="8.0" stroke-linecap="butt" d="m160.08398 188.71976l0 -118.10499l113.55643 0" fill-rule="nonzero"></path><path fill="#000000" fill-opacity="0.0" d="m799.9147 350.96326l0 118.10498l-113.5564 0" fill-rule="nonzero"></path><path stroke="#8bc34a" stroke-width="3.0" stroke-miterlimit="8.0" stroke-linecap="butt" d="m799.9147 350.96326l0 118.10498l-113.5564 0" fill-rule="nonzero"></path><path fill="#000000" fill-opacity="0.0" d="m457.70096 295.79672l44.59842 0" fill-rule="nonzero"></path><path stroke="#039be5" stroke-width="4.0" stroke-linejoin="round" stroke-linecap="butt" d="m457.70096 295.79672l44.59842 0" fill-rule="nonzero"></path><path fill="#000000" fill-opacity="0.0" d="m176.4096 124.82154l607.1811 0l0 153.00787l-607.1811 0z" fill-rule="nonzero"></path><path fill="#ffffff" d="m391.66025 229.92004l-3.609375 0l-0.953125 -5.328125q-1.234375 -1.21875 -3.046875 -2.0q-1.8125 -0.78125 -4.328125 -0.78125q-5.875 0 -9.03125 4.265625q-3.15625 4.25 -3.15625 10.796875l0 0.59375q0 6.546875 3.09375 10.84375q3.09375 4.28125 8.578125 4.28125q2.5625 0 4.65625 -0.796875q2.09375 -0.8125 3.234375 -1.984375l0.953125 -5.328125l3.609375 0l0 6.703125q-1.640625 2.09375 -4.90625 3.75q-3.25 1.640625 -7.546875 1.640625q-7.359375 0 -12.0625 -5.4375q-4.703125 -5.4375 -4.703125 -13.671875l0 -0.53125q0 -8.28125 4.625 -13.703125q4.640625 -5.421875 12.140625 -5.421875q4.296875 0 7.546875 1.671875q3.265625 1.65625 4.90625 3.734375l0 6.703125zm4.9445496 22.84375l4.21875 -0.71875l0 -32.375l-4.21875 -0.71875l0 -3.296875l9.3125 0l0 16.09375q1.453125 -2.015625 3.546875 -3.125q2.09375 -1.109375 4.65625 -1.109375q4.5 0 6.984375 2.6875q2.484375 2.6875 2.484375 8.28125l0 13.5625l4.21875 0.71875l0 3.265625l-13.53125 0l0 -3.265625l4.21875 -0.71875l0 -13.609375q0 -3.46875 -1.5 -5.125q-1.484375 -1.65625 -4.421875 -1.65625q-2.109375 0 -3.828125 1.0q-1.71875 0.984375 -2.828125 2.703125l0 16.6875l4.21875 0.71875l0 3.265625l-13.53125 0l0 -3.265625zm35.142487 -11.0q0 -6.203125 3.3593445 -10.21875q3.375 -4.03125 9.140625 -4.03125q5.796875 0 9.171875 4.015625q3.375 4.0 3.375 10.234375l0 0.578125q0 6.265625 -3.359375 10.25q-3.359375 3.984375 -9.140625 3.984375q-5.8125 0 -9.1875 -4.0q-3.3593445 -4.0 -3.3593445 -10.234375l0 -0.578125zm5.0937195 0.578125q0 4.453125 1.875 7.359375q1.890625 2.890625 5.578125 2.890625q3.625 0 5.515625 -2.890625q1.890625 -2.90625 1.890625 -7.359375l0 -0.578125q0 -4.390625 -1.890625 -7.3125q-1.890625 -2.921875 -5.5625 -2.921875q-3.671875 0 -5.546875 2.921875q-1.859375 2.921875 -1.859375 7.3125l0 0.578125zm34.731476 -11.03125l-3.203125 0.578125l3.65625 13.9375l0.59375 3.390625l0.15625 0l0.71875 -3.390625l5.59375 -17.796875l4.078125 0l5.625 17.796875l0.796875 3.78125l0.15625 0l0.75 -3.78125l3.4375 -13.9375l-3.25 -0.578125l0 -3.28125l10.65625 0l0 3.28125l-2.4375 0.359375l-7.0625 24.359375l-4.109375 0l-5.4375 -17.046875l-1.15625 -4.71875l-0.15625 0.03125l-1.09375 4.6875l-5.328125 17.046875l-4.109375 0l-7.078125 -24.359375l-2.453125 -0.359375l0 -3.28125l10.65625 0l0 3.28125zm50.193634 -12.96875q5.90625 0 9.234375 2.5625q3.328125 2.546875 3.328125 7.640625q0 2.515625 -1.59375 4.5q-1.59375 1.96875 -4.203125 2.921875q3.390625 0.734375 5.34375 3.34375q1.96875 2.609375 1.96875 6.078125q0 5.1875 -3.359375 7.921875q-3.359375 2.71875 -9.109375 2.71875l-18.109375 0l0 -3.265625l4.21875 -0.71875l0 -29.6875l-4.21875 -0.71875l0 -3.296875l4.21875 0l12.28125 0zm-7.1875 20.015625l0 13.6875l8.796875 0q3.5 0 5.421875 -1.71875q1.921875 -1.71875 1.921875 -4.875q0 -3.3125 -1.625 -5.203125q-1.609375 -1.890625 -4.9375 -1.890625l-9.578125 0zm0 -3.984375l8.515625 0q2.734375 -0.078125 4.421875 -1.625q1.703125 -1.5625 1.703125 -4.3125q0 -3.046875 -1.921875 -4.5625q-1.90625 -1.515625 -5.53125 -1.515625l-7.1875 0l0 12.015625zm26.194519 7.390625q0 -6.203125 3.359375 -10.21875q3.375 -4.03125 9.140625 -4.03125q5.796875 0 9.171875 4.015625q3.375 4.0 3.375 10.234375l0 0.578125q0 6.265625 -3.359375 10.25q-3.359375 3.984375 -9.140625 3.984375q-5.8125 0 -9.1875 -4.0q-3.359375 -4.0 -3.359375 -10.234375l0 -0.578125zm5.09375 0.578125q0 4.453125 1.875 7.359375q1.890625 2.890625 5.578125 2.890625q3.625 0 5.515625 -2.890625q1.890625 -2.90625 1.890625 -7.359375l0 -0.578125q0 -4.390625 -1.890625 -7.3125q-1.890625 -2.921875 -5.5625 -2.921875q-3.671875 0 -5.546875 2.921875q-1.859375 2.921875 -1.859375 7.3125l0 0.578125zm24.106445 10.421875l3.0 -0.59375l8.25 -10.296875l-8.0 -9.96875l-3.0 -0.59375l0 -3.28125l10.984375 0l0 3.28125l-2.546875 0.3125l5.234375 6.734375l5.25 -6.765625l-2.515625 -0.28125l0 -3.28125l11.0625 0l0 3.28125l-3.015625 0.59375l-7.984375 9.96875l8.21875 10.296875l3.03125 0.59375l0 3.265625l-10.96875 0l0 -3.265625l2.484375 -0.28125l-5.484375 -7.03125l-5.484375 7.03125l2.5 0.28125l0 3.265625l-11.015625 0l0 -3.265625z" fill-rule="nonzero"></path><path fill="#000000" fill-opacity="0.0" d="m176.4096 320.15222l607.1811 0l0 95.433075l-607.1811 0z" fill-rule="nonzero"></path><path fill="#8bc34a" d="m365.05484 339.1066l0 -1.984375l8.171875 0l0 1.984375l-2.546875 0.4375l0 17.921875l2.546875 0.4375l0 1.96875l-8.171875 0l0 -1.96875l2.546875 -0.4375l0 -17.921875l-2.546875 -0.4375zm16.015625 -0.21875l0 4.078125l3.203125 0l0 2.28125l-3.203125 0l0 10.265625q0 1.1875 0.484375 1.671875q0.5 0.484375 1.3125 0.484375q0.40625 0 0.90625 -0.0625q0.515625 -0.078125 0.859375 -0.15625l0.421875 2.109375q-0.4375 0.28125 -1.28125 0.453125q-0.84375 0.1875 -1.6875 0.1875q-1.875 0 -2.984375 -1.125q-1.109375 -1.140625 -1.109375 -3.5625l0 -10.265625l-2.671875 0l0 -2.28125l2.671875 0l0 -4.078125l3.078125 0zm10.21875 -0.515625q0 1.5625 -0.765625 3.234375q-0.75 1.671875 -2.046875 2.75l-1.75 -1.15625q0.734375 -1.109375 1.109375 -2.265625q0.375 -1.171875 0.375 -2.515625l0 -2.921875l3.078125 0l0 2.875zm15.59375 9.90625l-2.3125 0l-0.5 -2.03125q-0.5625 -0.53125 -1.421875 -0.84375q-0.84375 -0.328125 -1.921875 -0.328125q-1.640625 0 -2.4375 0.71875q-0.796875 0.71875 -0.796875 1.734375q0 1.0 0.703125 1.578125q0.703125 0.578125 2.859375 1.03125q3.203125 0.6875 4.765625 1.875q1.5625 1.171875 1.5625 3.15625q0 2.25 -1.828125 3.640625q-1.8125 1.390625 -4.75 1.390625q-1.921875 0 -3.453125 -0.4375q-1.53125 -0.453125 -2.734375 -1.296875l-0.015625 -3.859375l2.3125 0l0.578125 2.265625q0.53125 0.484375 1.4375 0.703125q0.921875 0.21875 1.875 0.21875q1.640625 0 2.5625 -0.65625q0.9375 -0.671875 0.9375 -1.75q0 -1.015625 -0.78125 -1.671875q-0.765625 -0.65625 -2.921875 -1.140625q-3.078125 -0.671875 -4.640625 -1.828125q-1.5625 -1.15625 -1.5625 -3.125q0 -2.0625 1.75 -3.515625q1.765625 -1.453125 4.578125 -1.453125q1.921875 0 3.453125 0.5q1.53125 0.5 2.546875 1.390625l0.15625 3.734375zm28.6875 -4.171875l-2.171875 0l-0.578125 -3.21875q-0.75 -0.734375 -1.84375 -1.203125q-1.09375 -0.46875 -2.609375 -0.46875q-3.546875 0 -5.453125 2.578125q-1.90625 2.5625 -1.90625 6.515625l0 0.359375q0 3.953125 1.859375 6.546875q1.875 2.578125 5.1875 2.578125q1.546875 0 2.8125 -0.484375q1.265625 -0.484375 1.953125 -1.1875l0.578125 -3.21875l2.171875 0l0 4.046875q-0.984375 1.265625 -2.953125 2.265625q-1.96875 0.984375 -4.5625 0.984375q-4.4375 0 -7.28125 -3.28125q-2.84375 -3.28125 -2.84375 -8.25l0 -0.328125q0 -5.0 2.796875 -8.265625q2.796875 -3.28125 7.328125 -3.28125q2.59375 0 4.5625 1.015625q1.96875 1.0 2.953125 2.25l0 4.046875zm2.859375 13.796875l2.546875 -0.4375l0 -19.546875l-2.546875 -0.4375l0 -1.984375l5.625 0l0 9.71875q0.875 -1.21875 2.140625 -1.890625q1.265625 -0.671875 2.8125 -0.671875q2.71875 0 4.21875 1.625q1.5 1.625 1.5 5.0l0 8.1875l2.546875 0.4375l0 1.96875l-8.171875 0l0 -1.96875l2.546875 -0.4375l0 -8.21875q0 -2.09375 -0.90625 -3.09375q-0.890625 -1.0 -2.671875 -1.0q-1.265625 0 -2.3125 0.609375q-1.03125 0.59375 -1.703125 1.625l0 10.078125l2.546875 0.4375l0 1.96875l-8.171875 0l0 -1.96875zm21.09375 -6.640625q0 -3.75 2.03125 -6.171875q2.03125 -2.4375 5.515625 -2.4375q3.5 0 5.53125 2.421875q2.046875 2.421875 2.046875 6.1875l0 0.34375q0 3.78125 -2.03125 6.1875q-2.03125 2.40625 -5.515625 2.40625q-3.515625 0 -5.546875 -2.40625q-2.03125 -2.421875 -2.03125 -6.1875l0 -0.34375zm3.078125 0.34375q0 2.6875 1.125 4.4375q1.140625 1.75 3.375 1.75q2.1875 0 3.328125 -1.75q1.140625 -1.75 1.140625 -4.4375l0 -0.34375q0 -2.65625 -1.140625 -4.421875q-1.140625 -1.765625 -3.359375 -1.765625q-2.21875 0 -3.34375 1.765625q-1.125 1.765625 -1.125 4.421875l0 0.34375zm20.859375 -6.65625l-1.9375 0.34375l2.203125 8.421875l0.359375 2.046875l0.09375 0l0.4375 -2.046875l3.375 -10.75l2.46875 0l3.390625 10.75l0.484375 2.28125l0.09375 0l0.453125 -2.28125l2.078125 -8.421875l-1.96875 -0.34375l0 -1.984375l6.4375 0l0 1.984375l-1.46875 0.21875l-4.265625 14.703125l-2.484375 0l-3.28125 -10.296875l-0.703125 -2.84375l-0.09375 0.015625l-0.65625 2.828125l-3.21875 10.296875l-2.484375 0l-4.265625 -14.703125l-1.484375 -0.21875l0 -1.984375l6.4375 0l0 1.984375zm46.50003 -7.828125l0 5.03125l-2.625 0l-0.234375 -2.609375l-5.046875 0l0 17.921875l2.546875 0.4375l0 1.96875l-8.171875 0l0 -1.96875l2.546875 -0.4375l0 -17.921875l-5.0625 0l-0.21875 2.609375l-2.6406555 0l0 -5.03125l18.90628 0zm1.96875 20.78125l2.546875 -0.4375l0 -12.078125l-2.546875 -0.4375l0 -1.984375l5.625 0l0 14.5l2.546875 0.4375l0 1.96875l-8.171875 0l0 -1.96875zm5.625 -19.265625l-3.078125 0l0 -3.140625l3.078125 0l0 3.140625zm4.28125 19.265625l2.546875 -0.4375l0 -12.078125l-2.546875 -0.4375l0 -1.984375l5.3125 0l0.203125 2.203125q0.8125 -1.203125 2.09375 -1.859375q1.28125 -0.65625 2.96875 -0.65625q1.6875 0 2.890625 0.78125q1.21875 0.78125 1.828125 2.34375q0.796875 -1.4375 2.109375 -2.28125q1.3125 -0.84375 3.0625 -0.84375q2.59375 0 4.09375 1.78125q1.5 1.765625 1.5 5.328125l0 7.703125l2.546875 0.4375l0 1.96875l-8.1875 0l0 -1.96875l2.546875 -0.4375l0 -7.734375q0 -2.5 -0.859375 -3.53125q-0.859375 -1.046875 -2.546875 -1.046875q-1.609375 0 -2.59375 1.140625q-0.96875 1.125 -1.125 2.84375l0 8.328125l2.546875 0.4375l0 1.96875l-8.171875 0l0 -1.96875l2.546875 -0.4375l0 -7.734375q0 -2.375 -0.890625 -3.46875q-0.875 -1.109375 -2.546875 -1.109375q-1.40625 0 -2.3125 0.578125q-0.90625 0.578125 -1.390625 1.625l0 10.109375l2.546875 0.4375l0 1.96875l-8.171875 0l0 -1.96875zm38.5625 2.296875q-3.53125 0 -5.625 -2.34375q-2.078125 -2.359375 -2.078125 -6.109375l0 -0.6875q0 -3.609375 2.140625 -6.0q2.15625 -2.40625 5.09375 -2.40625q3.40625 0 5.15625 2.0625q1.765625 2.0625 1.765625 5.5l0 1.921875l-10.96875 0l-0.046875 0.078125q0.046875 2.4375 1.234375 4.015625q1.1875 1.5625 3.328125 1.5625q1.5625 0 2.734375 -0.4375q1.1875 -0.453125 2.046875 -1.234375l1.203125 2.0q-0.90625 0.875 -2.40625 1.484375q-1.484375 0.59375 -3.578125 0.59375zm-0.46875 -15.125q-1.546875 0 -2.640625 1.3125q-1.09375 1.296875 -1.34375 3.265625l0.03125 0.078125l7.796875 0l0 -0.40625q0 -1.8125 -0.96875 -3.03125q-0.96875 -1.21875 -2.875 -1.21875zm13.875 7.328125l-3.078125 0l0 -15.28125l3.078125 0l0 15.28125zm0 7.46875l-3.078125 0l0 -3.1875l3.078125 0l0 3.1875z" fill-rule="nonzero"></path></g></svg>

