<?xml version="1.0" encoding="utf-8"?>
<!-- Generator: Adobe Illustrator 16.0.0, SVG Export Plug-In . SVG Version: 6.00 Build 0)  -->
<!DOCTYPE svg PUBLIC "-//W3C//DTD SVG 1.1//EN" "http://www.w3.org/Graphics/SVG/1.1/DTD/svg11.dtd">
<svg version="1.1" id="Layer_1" xmlns="http://www.w3.org/2000/svg" xmlns:xlink="http://www.w3.org/1999/xlink" x="0px" y="0px"
	 width="439px" height="401px" viewBox="0 0 439 401" enable-background="new 0 0 439 401" xml:space="preserve">
<g>
	<g>
		<text transform="matrix(1 0 0 1 41.4043 332.5513)"><tspan x="0" y="0" fill="#4D6A76" font-family="'CalistoMT'" font-size="29.5969" letter-spacing="2">NEURA</tspan><tspan x="122.59" y="0" fill="#4D6A76" font-family="'CalistoMT'" font-size="29.5969" letter-spacing="1">L</tspan><tspan x="143.478" y="0" fill="#4D6A76" font-family="'CalistoMT'" font-size="29.5969" letter-spacing="1">. </tspan><tspan x="162.883" y="0" fill="#4D6A76" font-family="'CalistoMT'" font-size="29.5969" letter-spacing="2">DECISION</tspan><tspan x="330.946" y="0" fill="#4D6A76" font-family="'CalistoMT'" font-size="29.5969" letter-spacing="1">S.</tspan></text>
	</g>
	<g>
		<text transform="matrix(1 0 0 1 39.5088 379.875)"><tspan x="0" y="0" fill="#4D6A76" font-family="'CalistoMT'" font-size="43.5406" letter-spacing="21">de CERV</tspan><tspan x="329.105" y="0" fill="#99CCCC" font-family="'CalistoMT'" font-size="43.5406" letter-spacing="21">O</tspan></text>
	</g>
	<g>
		<g>
			<g>
				<path fill="#6B8492" d="M404.947,71.157L270.068,175.274c0,0-11.831,8.994-5.679-5.205l37.704-68.307
					c0,0-36.282,36.598-45.747,40.384c0,0-8.521,1.895-3.473-8.202l11.357-22.404c0,0-4.731,6.941-8.519,3.155
					c0,0-2.522-0.945,3.157-9.147l37.543-49.22c0,0,20.762-23.74,11.046-29.03c0,0-22.088-10.724-73.517,11.046
					c0,0-74.521,33.508-133.714,94.479c0,0-48.539,47.651-59.785,82.28c0,0-7.598,16.966,1.48,27.82
					c0,0,10.654,17.164,60.674,11.542c0,0-5.532,0.747,126.97-18.056c29.201-4.143,89.185-11.443,111.335-12.861
					c0,0,6.067-0.871,9.223-0.556c0,0-67.579,13.417-93.148,17.274c0,0-99.07,17.988-127.783,24.299
					c0,0-89.637,20.088-107.691-12.468c0,0-13.936-17.151,10.359-55.645c0,0,26.933-51.793,102.382-107.944
					c0,0,44.803-36.602,97.809-58.056c0,0,44.172-18.929,76.354-11.673c0,0,9.781,1.802,10.84,10.008
					c0.25,1.939-0.591,5.28-1.972,8.435c0,0-1.062,5.845-30.008,41.189l-8.52,10.727c0,0,5.681,2.21,2.525,5.677
					c0,0-18.299,29.03-17.983,34.077c0,0,27.135-20.824,44.486-41.018c0,0,5.479-9.141,8.808-8.624c0,0,5.391-0.209-2.182,12.728
					l-39.439,71.621c0,0,124.626-88.978,128.726-94.024C403.687,69.578,406.523,68.001,404.947,71.157z"/>
			</g>
			<g>
				<g>
					<path fill="#99CCCC" d="M412.77,55.205c0,0-2.405,0.182-4.735,1.556c-2.371,1.395-4.666,4.009-4.827,7.825
						c0,0-1.261,11.358,10.097,11.358c0,0,8.836-0.942,9.467-11.988C422.771,63.955,423.425,55.205,412.77,55.205z M417.58,66.97
						c-1.262,4.731-6.171,4.557-6.171,4.557c-3.468-0.627-4.417-4.731-4.417-4.731c-1.26-7.887,7.257-7.257,7.257-7.257
						C420.245,61.125,417.58,66.97,417.58,66.97z"/>
				</g>
			</g>
		</g>
	</g>
</g>
</svg>
